<?xml version="1.0" encoding="UTF-8" standalone="no"?>
<svg
   xmlns:dc="http://purl.org/dc/elements/1.1/"
   xmlns:cc="http://creativecommons.org/ns#"
   xmlns:rdf="http://www.w3.org/1999/02/22-rdf-syntax-ns#"
   xmlns:svg="http://www.w3.org/2000/svg"
   xmlns="http://www.w3.org/2000/svg"
   xmlns:sodipodi="http://sodipodi.sourceforge.net/DTD/sodipodi-0.dtd"
   xmlns:inkscape="http://www.inkscape.org/namespaces/inkscape"
   version="1.1"
   width="1319.42"
   height="1503.8199"
   viewBox="-31668 -16192 13194.2 15038.2"
   id="svg4001"
   inkscape:version="0.48.2 r9819"
   sodipodi:docname="logo.svg">
  <metadata
     id="metadata4008">
    <rdf:RDF>
      <cc:Work
         rdf:about="">
        <dc:format>image/svg+xml</dc:format>
        <dc:type
           rdf:resource="http://purl.org/dc/dcmitype/StillImage" />
        <dc:title></dc:title>
      </cc:Work>
    </rdf:RDF>
  </metadata>
  <defs
     id="defs4006" />
  <sodipodi:namedview
     pagecolor="#ffffff"
     bordercolor="#666666"
     borderopacity="1"
     objecttolerance="10"
     gridtolerance="10"
     guidetolerance="10"
     inkscape:pageopacity="0"
     inkscape:pageshadow="2"
     inkscape:window-width="1366"
     inkscape:window-height="705"
     id="namedview4004"
     showgrid="false"
     inkscape:zoom="0.31386736"
     inkscape:cx="717.84944"
     inkscape:cy="716.43989"
     inkscape:window-x="1432"
     inkscape:window-y="376"
     inkscape:window-maximized="1"
     inkscape:current-layer="svg4001" />
  <path
     id="Hawaii"
     style="fill:#e1e5e8;stroke:none;stroke-width:1"
     d="m -29375.376,-16191.425 61,87 91,5 36,41 167,19 0,46 25,21 15,10 203,76 40,-36 142,81 101,20 16,97 20,10 35,21 122,20 20,56 -15,122 36,41 106,71 66,41 81,-11 158,153 101,-1 76,56 116,81 87,41 15,51 86,30 46,87 56,35 238,45 10,62 40,10 31,91 71,51 66,46 192,-88 96,-51 172,40 81,66 97,-5 96,51 96,71 20,-5 71,-11 46,36 40,-26 51,56 111,30 102,56 131,-26 137,81 86,-6 71,72 87,50 116,41 31,15 35,10 26,56 55,51 152,40 51,61 20,10 26,15 46,36 177,45 86,-5 56,50 5,5 35,16 157,40 67,117 75,-6 188,107 71,20 25,5 61,5 147,91 87,127 101,35 82,87 111,30 183,96 81,137 36,10 223,106 224,254 96,46 46,-26 56,178 41,10 96,92 51,153 0,10 92,40 50,66 87,25 15,87 66,66 26,92 -20,40 31,123 -45,97 10,56 0,5 -45,102 66,71 -19,128 25,96 -50,154 26,147 -5,41 47,265 16,46 91,-1 101,-77 15,-40 30,45 -5,56 76,-87 0,-46 40,-40 41,20 81,-26 91,35 91,-16 86,36 81,-1 5,-41 97,97 41,102 92,137 71,198.0004 6,143 -50,117 41,194 -19,127 15,46 66,56 218,81 6,50 15,112 82,82 147,65 61,86 92,66 76,92 508,247 86,-1 168,127 142,60 173,157 -35,41 -91,6 10,86 -35,128 41,15 -85,184 -177,205 -424,318 -70,82 -137,97 -70,77 -41,10 -182,139 -80,137 -46,16 -156,174 -101,102 -167,118 -172,72 -106,62 -75,87 -208,87 -284,17 -81,41 -30,72 -70,86 -183,73 -80,76 -142,67 -40,66 -142,-29 -142,26 -30,86 -274,42 -51,-25 -50,51 -46,10 -40,-25 -107,36 -86,-15 -340,-136 -91,6 -82,-15 -55,31 -25,40 -56,-15 -187,37 -97,82 -45,56 -131,148 -192,118 -111,163 -142,108 -223,77 -91,92 -228,36 -81,87 -101,87 -126,138 -86,143 -91,51 -91,21 -96,-5 -51,31 -96,5 -173,103 16,96 -91,72 -46,0 -76,41 -55,102 -76,112 -66,11 -55,66 -29,418 -51,91 -177,133 -20,61 0,118 -86,61 10,41 -90,132 -15,87 -46,51 10,40 -55,26 -87,-25 -81,16 5,40 -40,158 -45,36 -41,-10 -5,96 -81,41 -91,57 -86,137 -61,-15 -60,67 -137,51 25,-51 -41,-92 5,-142 -132,-137 -127,-35 -153,-127 -162,-76 -127,-25 -102,-66 -56,-81 -249,-116 -137,-163 -127,-61 -40,26 -117,-45 -46,10 -101,-61 -82,10 -86,-40 -71,21 -40,-51 -122,-56 -16,-183 -71,-137 -46,0 -66,-158 -92,-25 -102,-376 25,-184 -15,-46 30,-45 0,-51 40,-21 0,-81 -46,15 25,-132 71,-138 -20,-51 30,-97 10,-188 40,-82 -11,-183 31,-87 -16,-101 10,-87 66,-132 4,-174 20,-40 0,-199 -26,-122 -5,-41 51,-92 5,-56 -11,-112 -138,-295 5,-91 -91,-51 5,-51 -36,-76 -66,-72 66,-96 -10,-56 -41,-5 -20,-46 -1,-92 -50,-20 -21,-148 -66,-198 50,-169 -10,-40 -92,-41 -91,6 -91,-51 5,-92 -51,-86 -21,-92 -66,-86 15,-62 46,-40 0,-123 -36,-51 15,-40 -91,-20 5,-87 45,-31 -15,-46 -51,-5 15,-81 -15,-77 -71,-106 -6,-123 -106,-157 -21,-107 -51,-133 -81,-15 -254,-101 -35,-138 40,-132 -51,-25 -15,-138 -46,15 -30,-61 -41,26 -36,-51 -41,-234.0004 -96,-112 5,-61 91,-31 -10,-122 20,-97 -41,-174 35,-30 5,-66 96,-77 0,-61 45,-31 71,5 46,-72 91,-61 40,-102 71,-36 15,-56 86,-5 -10,-87 101,-112 75,-102 41,-11 50,-46 111,-41 127,-5 40,30 178,-26 -16,-127 10,-117 91,-36 15,-56 81,-42 0,-56 55,-71 61,-5 -15,-77 30,-66 50,-21 5,-112 41,-31 9,-66 71,-5 -5,-92 96,20 -10,-71 66,-67 25,-76 106,-108 101,-10 56,61 5,-5 15,-102 30,-102 35,-143 -6,-97 -5,-36 35,-87 -20,-96 -31,-46 -101,-168 -66,-107 -92,-61 -25,-112 -86,-41 -46,-117 -102,-173 -45,0 -46,-36 -16,-178 -112,-336 25,-103 -46,-239 -41,-20 -15,-41 15,-184 40,-133 19,-270 167,-164 126,-107 91,-47 86,-10 40,25 71,-25 z"
     connector-curvature="0" />
</svg>
