<svg xmlns:dc="http://purl.org/dc/elements/1.1/" xmlns:cc="http://creativecommons.org/ns#" xmlns:rdf="http://www.w3.org/1999/02/22-rdf-syntax-ns#" xmlns:svg="http://www.w3.org/2000/svg" xmlns="http://www.w3.org/2000/svg" xmlns:xlink="http://www.w3.org/1999/xlink" xmlns:sodipodi="http://sodipodi.sourceforge.net/DTD/sodipodi-0.dtd" xmlns:inkscape="http://www.inkscape.org/namespaces/inkscape" width="335" height="96" version="1.1">
  <style>
	.dark{
		fill:	#0065b0;
	}
	.light{
		fill:	#6da2d6;
	}
</style>
    <path d="M 0 58.827 46.094 56.969 c 0 0 17.843 0 37.173 -18.586 C 102.596 22.398 111.518 16.822 111.518 16.822 c 0 0 19.33 -12.267 32.712 -12.267 13.382 0 190.696 0 190.696 0 l 0 3.346 -189.209 2.23 c 0 0 -10.78 0 -25.277 10.78 -14.497 10.78 -41.633 36.429 -41.633 36.429 0 0 -14.869 15.613 -31.597 17.471 -16.728 1.859 -48.324 4.089 -48.324 4.089 z" class="dark"/>
    <path d="m 103.34 97.487 30.11 -51.298 c 0 0 12.267 -17.843 29.366 -18.586 17.099 -0.743 172.481 -7.435 172.481 -7.435 l 0 8.55 -177.313 14.497 c 0 0 -9.665 -4.089 -20.445 18.215 -10.78 22.304 -18.215 36.801 -18.215 36.801 z" class="dark"/>
    <path d="m 9.293 97.487 c 0 0 43.12 -2.23 62.822 -21.188 19.701 -18.958 51.298 -49.068 51.298 -49.068 0 0 11.524 -11.895 32.712 -12.267 21.188 -0.372 179.172 -4.089 179.172 -4.089 l 0 2.974 -181.774 5.576 c 0 0 -11.524 -0.743 -24.162 13.754 -12.639 14.497 -52.785 65.052 -52.785 65.052 z" class="light"/>
</svg>
