<?xml version="1.0" encoding="UTF-8" standalone="no"?>
<svg
   xmlns:dc="http://purl.org/dc/elements/1.1/"
   xmlns:cc="http://creativecommons.org/ns#"
   xmlns:rdf="http://www.w3.org/1999/02/22-rdf-syntax-ns#"
   xmlns:svg="http://www.w3.org/2000/svg"
   xmlns="http://www.w3.org/2000/svg"
   xmlns:sodipodi="http://sodipodi.sourceforge.net/DTD/sodipodi-0.dtd"
   xmlns:inkscape="http://www.inkscape.org/namespaces/inkscape"
   width="1319.42"
   height="1503.8199"
   viewBox="-31668 -16192 13194.2 15038.2"
   id="svg3897"
   version="1.1"
   inkscape:version="0.48.4 r9939"
   sodipodi:docname="logo.svg">
  <metadata
     id="metadata3917">
    <rdf:RDF>
      <cc:Work
         rdf:about="">
        <dc:format>image/svg+xml</dc:format>
        <dc:type
           rdf:resource="http://purl.org/dc/dcmitype/StillImage" />
      </cc:Work>
    </rdf:RDF>
  </metadata>
  <defs
     id="defs3915" />
  <sodipodi:namedview
     pagecolor="#ffffff"
     bordercolor="#666666"
     borderopacity="1"
     objecttolerance="10"
     gridtolerance="10"
     guidetolerance="10"
     inkscape:pageopacity="0"
     inkscape:pageshadow="2"
     inkscape:window-width="1366"
     inkscape:window-height="705"
     id="namedview3913"
     showgrid="false"
     inkscape:zoom="0.31386736"
     inkscape:cx="482.94125"
     inkscape:cy="782.42534"
     inkscape:window-x="1432"
     inkscape:window-y="354"
     inkscape:window-maximized="1"
     inkscape:current-layer="svg3897" />
  <path
     inkscape:connector-curvature="0"
     style="fill:#e1e5e8;stroke:none"
     d="m -29376.125,-16190.675 -90.938,0.938 -70.937,25 -40,-25 -85.938,10 -90.937,46.875 -126.25,107.187 -166.875,164.063 -19.063,270 -40,132.812 -15,184.063 15,40.937 40.938,20 46.25,239.063 -25,103.125 111.875,335.937 15.937,177.813 45.938,36.25 45,0 102.187,172.812 45.938,117.188 85.937,40.937 25,111.875 92.188,60.938 65.937,107.187 100.938,167.813 30.937,46.25 20,95.937 -35,86.875 5,35.938 5.938,97.187 -35,142.813 -30,102.187 -15,101.875 -5,5 -55.938,-60.937 -100.937,10 -105.938,108.125 -25,75.937 -65.937,66.875 10,70.938 -96.25,-20 5,92.187 -70.938,5 -9.062,65.938 -40.938,30.937 -5,112.188 -50,20.937 -30,65.938 15,76.875 -60.937,5 -55,71.25 0,55.937 -80.938,41.875 -15,55.938 -90.937,36.25 -10,116.875 15.937,126.875 -178.125,26.25 -40,-30 -126.875,5 -110.937,40.937 -50,45.938 -41.25,10.937 -75,102.188 -100.938,111.875 10,86.875 -85.937,5 -15,56.25 -70.938,35.937 -40,101.875 -90.937,60.938 -46.25,72.187 -70.938,-5 -45,30.938 0,60.937 -95.937,77.188 -5,65.937 -35,30 40.937,174.063 -20,96.875 10,121.875 -90.937,31.25 -5,60.937 95.937,111.875 26.25,150.3126 14.688,83.75 36.25,50.937 40.937,-25.937 30,60.937 45.938,-15 15,138.125 50.937,25 -40,131.875 35,138.125 178.125,70.625 75.938,30.313 80.937,15 50.938,133.125 21.25,106.8747 105.937,156.875 5.625,115.3125 0.313,7.8125 70.937,105.9375 15,77.1875 -15,80.9375 50.938,5 15,45.9375 -45,30.9375 -5,87.1875 91.25,20 -15,40 35.937,50.9375 0,122.8125 -45.937,40 -15,62.1875 65.937,85.9375 20.938,91.875 1.25,2.1875 49.687,84.0625 -5,91.875 90.938,50.9375 91.25,-5.9375 91.875,40.9375 10,40 -50,169.0625 65.937,198.125 20.938,147.8125 50,20 1.25,92.1875 20,45.9375 40.937,5 10,55.9375 -65.937,95.9375 65.937,72.1875 12.188,25.625 23.75,50.3125 -5,50.9376 90.937,50.9375 -5,90.9375 138.125,295.0005 10.938,112.187 -5,55.937 -50.938,91.876 5,41.25 25.938,121.874 0,199.063 -20,40 -4.063,174.063 -65.937,131.874 -10,86.876 15.937,101.25 -30.937,86.874 10.937,183.126 -40,81.874 -7.812,145 -2.188,43.126 -30,96.874 20,50.938 -70.937,138.125 -25,131.875 45.937,-15 0,80.938 -40,21.25 0,50.937 -30,45 15,45.9371 -25,184.063 102.188,375.937 91.875,25 65.937,158.126 45.938,0 71.25,136.874 15.937,183.126 121.875,55.937 40,50.937 70.938,-20.937 86.25,40 81.875,-10 100.937,60.937 45.938,-10 117.187,45 40,-25.937 126.875,60.937 137.188,163.126 248.75,115.937 56.25,80.937 101.875,65.938 126.875,25 162.187,75.938 152.813,127.187 127.187,35 131.875,136.875 -5,142.188 40.938,91.874 -25,50.938 137.187,-50.938 60,-66.874 60.938,15 85.937,-137.188 90.938,-56.875 81.25,-40.937 5,-96.25 40.937,10 45,-35.938 40,-157.812 -5,-40 80.938,-16.25 86.875,25 55,-25.938 -10,-40 46.25,-50.938 15,-86.874 90,-132.188 -10,-40.938 85.937,-60.937 0,-118.125 20,-60.938 176.875,-133.124 50.938,-90.938 29.062,-417.812 55,-66.25 65.938,-10.938 76.25,-111.875 55,-102.187 75.937,-40.938 45.938,0 90.937,-71.875 -15.937,-95.937 173.125,-103.1261 95.937,-5 50.938,-30.937 95.937,5 90.938,-20.937 91.25,-51.25 85.937,-142.813 125.938,-138.125 100.937,-86.875 80.938,-87.187 228.125,-35.938 90.937,-91.875 223.125,-77.187 141.875,-107.813 110.938,-163.125 192.187,-117.812 130.938,-148.126 45,-55.937 96.875,-82.187 187.187,-36.876 55.938,15 25,-40 55,-30.937 81.875,15 91.25,-5.937 340,135.937 85.937,15 106.875,-35.937 40,25 45.938,-10 50,-51.25 51.25,25 273.75,-41.876 30,-85.937 142.187,-25.937 141.875,28.75 40,-65.938 142.188,-66.875 80,-75.937 182.812,-73.126 70,-85.937 30,-72.187 80.938,-40.938 284.062,-16.875 208.126,-87.187 75,-86.876 105.937,-61.874 171.875,-72.188 167.188,-117.812 100.937,-102.188 155.937,-174.0626 45.938,-15.9375 80,-136.875 182.188,-139.0625 40.937,-10 70,-76.875 136.875,-97.1875 70,-81.875 424.062,-318.125 177.188,-205 85,-184.0625 -41.25,-15 35,-127.8125 -10,-85.9375 91.25,-6.25 35,-40.9375 -173.125,-156.875 -141.875,-60 -55.938,-42.5 -112.187,-84.6875 -85.937,1.25 -508.126,-247.1875 -75.937,-91.875 -91.875,-65.9375 -61.25,-86.25 -146.875,-65 -81.875,-81.875 -15,-111.8747 -3.75,-30 -2.5,-20 -217.812,-81.25 -65.938,-55.938 -15,-45.937 18.75,-126.875 -40.938,-194.063 50,-117.187 -1.562,-37.188 -4.375,-105.625 -70.937,-198.1246 -22.5,-33.437 -69.688,-103.438 -40.938,-102.187 -96.874,-96.875 -5,40.937 -80.938,0.937 -86.25,-35.937 -90.938,15.937 -90.937,-35 -80.937,26.25 -40.938,-20 -40,40 0,45.938 -76.25,86.875 5,-55.938 -30,-45 -15,40 -100.938,76.875 -90.937,1.25 -15.937,-46.25 -35.313,-198.75 -11.875,-66.25 5,-40.937 -25.938,-146.875 50,-154.063 -4.687,-18.125 -20.313,-77.812 19.063,-128.125 -65.937,-70.938 45,-101.875 0,-5 -10,-56.25 45,-96.875 -30.938,-123.125 20,-40 -26.25,-91.875 -65.938,-65.937 -15,-87.188 -86.874,-25 -50.001,-65.937 -92.187,-40 0,-10 -50.938,-152.813 -95.937,-92.187 -40.938,-10 -55.937,-177.813 -46.25,25.938 -95.938,-45.938 -224.062,-254.062 -222.813,-105.938 -35.937,-10 -81.25,-137.187 -182.813,-95.938 -110.937,-30 -82.188,-86.875 -100.937,-35 -86.875,-127.187 -147.188,-90.938 -60.937,-5 -25,-5 -70.938,-20 -188.125,-106.875 -75,5.938 -66.875,-117.188 -157.187,-40 -35,-15.937 -5,-5 -55.938,-50 -85.937,5 -176.875,-45 -46.25,-35.938 -25.938,-15 -20,-10 -50.937,-60.937 -151.875,-40 -55,-50.938 -26.25,-56.25 -35,-10 -30.938,-15 -115.937,-40.937 -86.875,-50 -71.25,-71.875 -85.938,5.937 -136.875,-80.937 -130.937,25.937 -102.188,-55.937 -110.937,-30 -50.938,-55.938 -40,25.938 -45.937,-35.938 -71.25,10.938 -20,5 -95.938,-70.938 -95.937,-51.25 -96.875,5 -81.25,-65.937 -171.875,-40 -95.938,50.937 -192.187,88.125 -65.938,-45.937 -70.937,-50.938 -30.938,-91.25 -40,-10 -10,-61.875 -238.125,-45 -55.937,-35 -45.938,-86.875 -85.937,-30 -15,-51.25 -87.188,-40.937 -115.937,-80.938 -75.938,-55.937 -100.937,0.937 -158.125,-153.125 -80.938,11.25 -65.937,-41.25 -106.25,-70.937 -35.938,-40.938 15,-121.875 -20,-56.25 -121.875,-20 -35,-20.937 -20,-10 -15.937,-96.875 -101.25,-20 -141.875,-80.938 -40,35.938 -203.125,-75.938 -15,-10 -25,-21.25 0,-45.937 -166.875,-19.062 -35.938,-40.938 -90.937,-5 -61.25,-86.875 z"
     id="path3899-4" />
  <path
     style="fill:#2b416a;stroke:none;stroke-width:1;fill-opacity:1"
     d="M 1164 711.96875 C 831.36849 726.3028 533.67763 739.11089 464.3125 742.125 C 459.42602 742.33733 454.57935 742.71075 449.78125 743.21875 C 444.98315 743.72675 440.20557 744.37208 435.5 745.15625 C 430.79443 745.94042 426.14014 746.86542 421.53125 747.90625 C 416.92236 748.94708 412.38307 750.09701 407.875 751.375 C 403.36693 752.65299 398.90309 754.0356 394.5 755.53125 C 390.09691 757.0269 385.73146 758.64995 381.4375 760.34375 C 377.14354 762.03755 372.93068 763.81505 368.75 765.6875 C 364.56932 767.55995 360.43825 769.49965 356.375 771.53125 C 352.31175 773.56285 348.31667 775.67251 344.375 777.84375 C 340.43333 780.01499 336.53469 782.27112 332.71875 784.5625 C 325.08686 789.14526 317.72908 793.92871 310.625 798.875 C 303.52092 803.82129 296.66807 808.90871 290.125 814.0625 C 283.58193 819.21629 277.32386 824.45098 271.375 829.65625 C 265.42614 834.86152 259.7902 840.05554 254.46875 845.15625 C 249.1473 850.25696 244.16084 855.25362 239.5 860.09375 C 234.83916 864.93388 230.49828 869.60774 226.53125 874.03125 C 222.56422 878.45476 218.95877 882.61788 215.71875 886.46875 C 209.23871 894.17048 204.24782 900.58752 200.875 905.0625 C 197.50218 909.53748 195.75 912.09375 195.75 912.09375 L 159.6875 973.53125 L 162.0625 978.5625 L 161.5625 983.65625 L 170.65625 988.75 L 170.15625 997.84375 L 183.96875 1027.3438 L 185.0625 1038.5625 L 184.5625 1044.1562 L 179.46875 1053.3438 L 179.96875 1057.4688 L 182.5625 1069.6562 L 182.5625 1089.5625 L 180.5625 1093.5625 L 180.15625 1110.9688 L 173.5625 1124.1562 L 172.5625 1132.8438 L 174.15625 1142.9688 L 171.0625 1151.6562 L 172.15625 1169.9688 L 168.15625 1178.1562 L 167.375 1192.6562 C 167.61366 1192.1634 167.82325 1191.7757 168.0625 1191.2812 C 178.03956 1170.6597 188.52543 1148.6186 199.40625 1125.2812 C 210.28707 1101.9439 221.58855 1077.3158 233.15625 1051.4688 C 235.38491 1046.489 237.69429 1041.6011 240.09375 1036.8438 C 242.49321 1032.0864 244.97649 1027.4456 247.53125 1022.9062 C 250.08601 1018.3669 252.71171 1013.9506 255.40625 1009.625 C 258.10079 1005.2994 260.86869 1001.0849 263.6875 996.96875 C 266.50631 992.85262 269.38493 988.81725 272.3125 984.90625 C 275.24007 980.99525 278.19794 977.21016 281.21875 973.5 C 284.23956 969.78984 287.30771 966.16989 290.40625 962.65625 C 293.50479 959.14261 296.65175 955.72767 299.8125 952.40625 C 306.13401 945.76341 312.55396 939.49355 319.03125 933.59375 C 325.50854 927.69395 332.02228 922.15995 338.53125 916.96875 C 345.04022 911.77755 351.5522 906.92331 357.96875 902.40625 C 364.3853 897.88919 370.70623 893.72112 376.90625 889.84375 C 383.10627 885.96638 389.17187 882.39712 395.03125 879.125 C 400.89063 875.85288 406.54286 872.85758 411.9375 870.15625 C 417.33214 867.45492 422.47545 865.03998 427.28125 862.875 C 432.08705 860.71002 436.5634 858.78809 440.65625 857.125 C 448.84195 853.79882 455.47323 851.46279 460.0625 849.9375 C 464.65177 848.41221 467.21875 847.71875 467.21875 847.71875 L 1282.2812 798.3125 L 1271.0625 789.84375 L 1262.4688 789.96875 L 1211.6562 765.25 L 1204.0625 756.0625 L 1194.875 749.46875 L 1188.75 740.84375 L 1174.0625 734.34375 L 1165.875 726.15625 L 1164.375 714.96875 L 1164 711.96875 z "
     transform="matrix(10,0,0,10,-31668,-16192)"
     id="path3901" />
  <path
     style="fill:#4d74ab;stroke:none;stroke-width:1;fill-opacity:1"
     d="M 1126.7188 610.40625 C 992.68991 613.49284 854.15282 616.69811 740.875 619.25 C 578.1833 622.91508 451.56517 625.68078 403.125 626.53125 C 397.06998 626.63756 391.10064 626.85066 385.21875 627.15625 C 379.33686 627.46184 373.52023 627.85196 367.8125 628.34375 C 362.10477 628.83554 356.50127 629.42882 350.96875 630.09375 C 345.43623 630.75868 339.98128 631.51876 334.625 632.34375 C 329.26872 633.16874 323.9915 634.05927 318.8125 635.03125 C 313.6335 636.00323 308.56318 637.05034 303.5625 638.15625 C 293.56113 640.36806 283.90686 642.83092 274.625 645.5 C 265.34314 648.16908 256.42905 651.04073 247.875 654.0625 C 239.32095 657.08427 231.13044 660.26135 223.3125 663.53125 C 215.49456 666.80115 208.04227 670.18029 200.96875 673.59375 C 193.89523 677.00721 187.1958 680.45379 180.875 683.90625 C 174.5542 687.35871 168.62226 690.80061 163.0625 694.1875 C 157.50274 697.57439 152.32168 700.90825 147.53125 704.125 C 142.74082 707.34175 138.32529 710.43296 134.3125 713.375 C 130.29971 716.31704 126.69559 719.09348 123.46875 721.65625 C 117.01507 726.78179 112.13506 731.05021 108.875 734.03125 C 105.61494 737.01229 103.96875 738.71875 103.96875 738.71875 C 103.96875 738.71875 88.465119 753.50839 87.03125 754.875 L 87.0625 755.65625 L 94.15625 766.25 L 95.65625 773.96875 L 94.15625 782.0625 L 99.25 782.5625 L 100.75 787.15625 L 96.25 790.25 L 95.75 798.96875 L 104.875 800.96875 L 103.375 804.96875 L 106.96875 810.0625 L 106.96875 822.34375 L 102.375 826.34375 L 100.875 832.5625 L 107.46875 841.15625 L 109.5625 850.34375 L 109.6875 850.5625 C 128.24591 828.34474 145.30195 808.08402 158.34375 793.125 C 165.56702 784.83921 172.75456 777.07642 179.875 769.84375 C 186.99544 762.61108 194.06012 755.90716 201.03125 749.65625 C 208.00238 743.40534 214.88092 737.62178 221.65625 732.28125 C 228.43158 726.94072 235.09195 722.03276 241.625 717.53125 C 248.15805 713.02974 254.56821 708.92136 260.8125 705.1875 C 267.05679 701.45364 273.15346 698.10008 279.0625 695.0625 C 284.97154 692.02492 290.69144 689.31891 296.21875 686.90625 C 301.74606 684.49359 307.0884 682.35912 312.1875 680.5 C 317.2866 678.64088 322.15685 677.03319 326.78125 675.65625 C 331.40565 674.27931 335.77178 673.15363 339.875 672.1875 C 343.97822 671.22137 347.80819 670.43919 351.34375 669.8125 C 354.87931 669.18581 358.10983 668.70236 361.03125 668.34375 C 366.87408 667.62652 371.45515 667.38564 374.5625 667.3125 C 377.66985 667.23936 379.3125 667.34375 379.3125 667.34375 L 1136.5 644.125 L 1136.0625 633.5625 L 1128.9688 613.75 L 1126.7188 610.40625 z "
     transform="matrix(10,0,0,10,-31668,-16192)"
     id="path3905" />
  <path
     style="fill:#2b416a;stroke:none;stroke-width:1;fill-opacity:1"
     d="M 1019.6875 531.34375 L 294.34375 531.34375 C 290.5195 531.34375 286.64219 531.444 282.71875 531.65625 C 278.79531 531.8685 274.82101 532.21419 270.8125 532.625 C 266.80399 533.03581 262.73572 533.52932 258.65625 534.125 C 254.57678 534.72068 250.48008 535.3894 246.34375 536.15625 C 238.07109 537.68996 229.69668 539.55127 221.28125 541.6875 C 212.86582 543.82373 204.41407 546.24579 195.96875 548.875 C 187.52343 551.50421 179.08109 554.36236 170.71875 557.375 C 162.35641 560.38764 154.07274 563.55724 145.90625 566.84375 C 137.73976 570.13026 129.70152 573.51791 121.84375 576.96875 C 113.98598 580.41959 106.31118 583.93189 98.875 587.4375 C 91.438824 590.94311 84.245458 594.45541 77.34375 597.90625 C 70.442042 601.35709 63.816868 604.74474 57.5625 608.03125 C 45.053764 614.60427 33.960888 620.74158 24.71875 626 C 19.420882 629.01428 16.272341 630.92547 12.28125 633.28125 L 13.75 641.65625 L 17.375 646.75 L 21.46875 644.15625 L 24.46875 650.25 L 29.0625 648.75 L 30.5625 662.5625 L 35.65625 665.0625 L 31.65625 678.25 L 35.15625 692.0625 L 52.96875 699.125 C 61.201604 692.69698 69.230987 686.55189 76.78125 680.9375 C 85.067043 674.77617 93.214283 668.97773 101.21875 663.5625 C 109.22322 658.14727 117.08965 653.09227 124.78125 648.375 C 132.47285 643.65773 139.99655 639.28619 147.34375 635.21875 C 154.69095 631.15131 161.84124 627.40325 168.8125 623.9375 C 175.78376 620.47175 182.56122 617.28719 189.125 614.375 C 195.68878 611.46281 202.06274 608.81302 208.1875 606.40625 C 214.31226 603.99948 220.18954 601.82448 225.84375 599.875 C 231.49796 597.92552 236.91039 596.19658 242.0625 594.65625 C 247.21461 593.11592 252.10027 591.77307 256.71875 590.59375 C 261.33723 589.41443 265.69669 588.39769 269.75 587.53125 C 277.85663 585.79838 284.81203 584.64517 290.46875 583.875 C 296.12547 583.10483 300.48299 582.72379 303.4375 582.53125 C 306.39201 582.33871 307.9375 582.34375 307.9375 582.34375 L 1018.4375 573.96875 L 1017.25 567.34375 L 1017.75 563.25 L 1015.1562 548.5625 L 1020.1562 533.15625 L 1019.6875 531.34375 z "
     transform="matrix(10,0,0,10,-31668,-16192)"
     id="path3909" />
</svg>
