<?xml version="1.0" encoding="UTF-8" standalone="no"?>
<svg
   xmlns:dc="http://purl.org/dc/elements/1.1/"
   xmlns:cc="http://creativecommons.org/ns#"
   xmlns:rdf="http://www.w3.org/1999/02/22-rdf-syntax-ns#"
   xmlns:svg="http://www.w3.org/2000/svg"
   xmlns="http://www.w3.org/2000/svg"
   xmlns:sodipodi="http://sodipodi.sourceforge.net/DTD/sodipodi-0.dtd"
   xmlns:inkscape="http://www.inkscape.org/namespaces/inkscape"
   version="1.1"
   width="1319.42"
   height="1503.8199"
   viewBox="-31668 -16192 13194.2 15038.2"
   id="svg4001"
   inkscape:version="0.48.2 r9819"
   sodipodi:docname="hawaii.svg">
  <metadata
     id="metadata4008">
    <rdf:RDF>
      <cc:Work
         rdf:about="">
        <dc:format>image/svg+xml</dc:format>
        <dc:type
           rdf:resource="http://purl.org/dc/dcmitype/StillImage" />
        <dc:title></dc:title>
      </cc:Work>
    </rdf:RDF>
  </metadata>
  <defs
     id="defs4006" />
  <sodipodi:namedview
     pagecolor="#ffffff"
     bordercolor="#666666"
     borderopacity="1"
     objecttolerance="10"
     gridtolerance="10"
     guidetolerance="10"
     inkscape:pageopacity="0"
     inkscape:pageshadow="2"
     inkscape:window-width="1366"
     inkscape:window-height="705"
     id="namedview4004"
     showgrid="false"
     inkscape:zoom="0.31386736"
     inkscape:cx="717.84944"
     inkscape:cy="716.43989"
     inkscape:window-x="1432"
     inkscape:window-y="376"
     inkscape:window-maximized="1"
     inkscape:current-layer="svg4001" />
  <path
     style="fill:#e1e5e8;stroke:none;stroke-width:1"
     d="M 1282.2812 798.3125 L 467.21875 847.71875 C 467.21875 847.71875 464.65177 848.41221 460.0625 849.9375 C 455.47323 851.46279 448.84195 853.79882 440.65625 857.125 C 436.5634 858.78809 432.08705 860.71002 427.28125 862.875 C 422.47545 865.03998 417.33214 867.45492 411.9375 870.15625 C 406.54286 872.85758 400.89063 875.85288 395.03125 879.125 C 389.17187 882.39712 383.10627 885.96638 376.90625 889.84375 C 370.70623 893.72112 364.3853 897.88919 357.96875 902.40625 C 351.5522 906.92331 345.04022 911.77755 338.53125 916.96875 C 332.02228 922.15995 325.50854 927.69395 319.03125 933.59375 C 312.55396 939.49355 306.13401 945.76341 299.8125 952.40625 C 296.65175 955.72767 293.50479 959.14261 290.40625 962.65625 C 287.30771 966.16989 284.23956 969.78984 281.21875 973.5 C 278.19794 977.21016 275.24007 980.99525 272.3125 984.90625 C 269.38493 988.81725 266.50631 992.85262 263.6875 996.96875 C 260.86869 1001.0849 258.10079 1005.2994 255.40625 1009.625 C 252.71171 1013.9506 250.08601 1018.3669 247.53125 1022.9062 C 244.97649 1027.4456 242.49321 1032.0864 240.09375 1036.8438 C 237.69429 1041.6011 235.38491 1046.489 233.15625 1051.4688 C 221.58855 1077.3158 210.28707 1101.9439 199.40625 1125.2812 C 188.52543 1148.6186 178.03956 1170.6597 168.0625 1191.2812 C 167.82325 1191.7757 167.61366 1192.1634 167.375 1192.6562 L 167.15625 1196.9688 L 164.15625 1206.6562 L 166.15625 1211.75 L 159.0625 1225.5625 L 156.5625 1238.75 L 161.15625 1237.25 L 161.15625 1245.3438 L 157.15625 1247.4688 L 157.15625 1252.5625 L 154.15625 1257.0625 L 155.65625 1261.6562 L 153.15625 1280.0625 L 163.375 1317.6562 L 172.5625 1320.1562 L 179.15625 1335.9688 L 183.75 1335.9688 L 190.875 1349.6562 L 192.46875 1367.9688 L 204.65625 1373.5625 L 208.65625 1378.6562 L 215.75 1376.5625 L 224.375 1380.5625 L 232.5625 1379.5625 L 242.65625 1385.6562 L 247.25 1384.6562 L 258.96875 1389.1562 L 262.96875 1386.5625 L 275.65625 1392.6562 L 289.375 1408.9688 L 314.25 1420.5625 L 319.875 1428.6562 L 330.0625 1435.25 L 342.75 1437.75 L 358.96875 1445.3438 L 374.25 1458.0625 L 386.96875 1461.5625 L 400.15625 1475.25 L 399.65625 1489.4688 L 403.75 1498.6562 L 401.25 1503.75 L 414.96875 1498.6562 L 420.96875 1491.9688 L 427.0625 1493.4688 L 435.65625 1479.75 L 444.75 1474.0625 L 452.875 1469.9688 L 453.375 1460.3438 L 457.46875 1461.3438 L 461.96875 1457.75 L 465.96875 1441.9688 L 465.46875 1437.9688 L 473.5625 1436.3438 L 482.25 1438.8438 L 487.75 1436.25 L 486.75 1432.25 L 491.375 1427.1562 L 492.875 1418.4688 L 501.875 1405.25 L 500.875 1401.1562 L 509.46875 1395.0625 L 509.46875 1383.25 L 511.46875 1377.1562 L 529.15625 1363.8438 L 534.25 1354.75 L 537.15625 1312.9688 L 542.65625 1306.3438 L 549.25 1305.25 L 556.875 1294.0625 L 562.375 1283.8438 L 569.96875 1279.75 L 574.5625 1279.75 L 583.65625 1272.5625 L 582.0625 1262.9688 L 599.375 1252.6562 L 608.96875 1252.1562 L 614.0625 1249.0625 L 623.65625 1249.5625 L 632.75 1247.4688 L 641.875 1242.3438 L 650.46875 1228.0625 L 663.0625 1214.25 L 673.15625 1205.5625 L 681.25 1196.8438 L 704.0625 1193.25 L 713.15625 1184.0625 L 735.46875 1176.3438 L 749.65625 1165.5625 L 760.75 1149.25 L 779.96875 1137.4688 L 793.0625 1122.6562 L 797.5625 1117.0625 L 807.25 1108.8438 L 825.96875 1105.1562 L 831.5625 1106.6562 L 834.0625 1102.6562 L 839.5625 1099.5625 L 847.75 1101.0625 L 856.875 1100.4688 L 890.875 1114.0625 L 899.46875 1115.5625 L 910.15625 1111.9688 L 914.15625 1114.4688 L 918.75 1113.4688 L 923.75 1108.3438 L 928.875 1110.8438 L 956.25 1106.6562 L 959.25 1098.0625 L 973.46875 1095.4688 L 987.65625 1098.3438 L 991.65625 1091.75 L 1005.875 1085.0625 L 1013.875 1077.4688 L 1032.1562 1070.1562 L 1039.1562 1061.5625 L 1042.1562 1054.3438 L 1050.25 1050.25 L 1078.6562 1048.5625 L 1099.4688 1039.8438 L 1106.9688 1031.1562 L 1117.5625 1024.9688 L 1134.75 1017.75 L 1151.4688 1005.9688 L 1161.5625 995.75 L 1177.1562 978.34375 L 1181.75 976.75 L 1189.75 963.0625 L 1207.9688 949.15625 L 1212.0625 948.15625 L 1219.0625 940.46875 L 1232.75 930.75 L 1239.75 922.5625 L 1282.1562 890.75 L 1299.875 870.25 L 1308.375 851.84375 L 1304.25 850.34375 L 1307.75 837.5625 L 1306.75 828.96875 L 1315.875 828.34375 L 1319.375 824.25 L 1302.0625 808.5625 L 1287.875 802.5625 L 1282.2812 798.3125 z "
     id="path4596"
     transform="matrix(10,0,0,10,-31668,-16192)" />
  <path
     style="fill:#2b416a;stroke:none;stroke-width:1;fill-opacity:1"
     d="M 1164 711.96875 C 831.36849 726.3028 533.67763 739.11089 464.3125 742.125 C 459.42602 742.33733 454.57935 742.71075 449.78125 743.21875 C 444.98315 743.72675 440.20557 744.37208 435.5 745.15625 C 430.79443 745.94042 426.14014 746.86542 421.53125 747.90625 C 416.92236 748.94708 412.38307 750.09701 407.875 751.375 C 403.36693 752.65299 398.90309 754.0356 394.5 755.53125 C 390.09691 757.0269 385.73146 758.64995 381.4375 760.34375 C 377.14354 762.03755 372.93068 763.81505 368.75 765.6875 C 364.56932 767.55995 360.43825 769.49965 356.375 771.53125 C 352.31175 773.56285 348.31667 775.67251 344.375 777.84375 C 340.43333 780.01499 336.53469 782.27112 332.71875 784.5625 C 325.08686 789.14526 317.72908 793.92871 310.625 798.875 C 303.52092 803.82129 296.66807 808.90871 290.125 814.0625 C 283.58193 819.21629 277.32386 824.45098 271.375 829.65625 C 265.42614 834.86152 259.7902 840.05554 254.46875 845.15625 C 249.1473 850.25696 244.16084 855.25362 239.5 860.09375 C 234.83916 864.93388 230.49828 869.60774 226.53125 874.03125 C 222.56422 878.45476 218.95877 882.61788 215.71875 886.46875 C 209.23871 894.17048 204.24782 900.58752 200.875 905.0625 C 197.50218 909.53748 195.75 912.09375 195.75 912.09375 L 159.6875 973.53125 L 162.0625 978.5625 L 161.5625 983.65625 L 170.65625 988.75 L 170.15625 997.84375 L 183.96875 1027.3438 L 185.0625 1038.5625 L 184.5625 1044.1562 L 179.46875 1053.3438 L 179.96875 1057.4688 L 182.5625 1069.6562 L 182.5625 1089.5625 L 180.5625 1093.5625 L 180.15625 1110.9688 L 173.5625 1124.1562 L 172.5625 1132.8438 L 174.15625 1142.9688 L 171.0625 1151.6562 L 172.15625 1169.9688 L 168.15625 1178.1562 L 167.375 1192.6562 C 167.61366 1192.1634 167.82325 1191.7757 168.0625 1191.2812 C 178.03956 1170.6597 188.52543 1148.6186 199.40625 1125.2812 C 210.28707 1101.9439 221.58855 1077.3158 233.15625 1051.4688 C 235.38491 1046.489 237.69429 1041.6011 240.09375 1036.8438 C 242.49321 1032.0864 244.97649 1027.4456 247.53125 1022.9062 C 250.08601 1018.3669 252.71171 1013.9506 255.40625 1009.625 C 258.10079 1005.2994 260.86869 1001.0849 263.6875 996.96875 C 266.50631 992.85262 269.38493 988.81725 272.3125 984.90625 C 275.24007 980.99525 278.19794 977.21016 281.21875 973.5 C 284.23956 969.78984 287.30771 966.16989 290.40625 962.65625 C 293.50479 959.14261 296.65175 955.72767 299.8125 952.40625 C 306.13401 945.76341 312.55396 939.49355 319.03125 933.59375 C 325.50854 927.69395 332.02228 922.15995 338.53125 916.96875 C 345.04022 911.77755 351.5522 906.92331 357.96875 902.40625 C 364.3853 897.88919 370.70623 893.72112 376.90625 889.84375 C 383.10627 885.96638 389.17187 882.39712 395.03125 879.125 C 400.89063 875.85288 406.54286 872.85758 411.9375 870.15625 C 417.33214 867.45492 422.47545 865.03998 427.28125 862.875 C 432.08705 860.71002 436.5634 858.78809 440.65625 857.125 C 448.84195 853.79882 455.47323 851.46279 460.0625 849.9375 C 464.65177 848.41221 467.21875 847.71875 467.21875 847.71875 L 1282.2812 798.3125 L 1271.0625 789.84375 L 1262.4688 789.96875 L 1211.6562 765.25 L 1204.0625 756.0625 L 1194.875 749.46875 L 1188.75 740.84375 L 1174.0625 734.34375 L 1165.875 726.15625 L 1164.375 714.96875 L 1164 711.96875 z "
     id="path4594"
     transform="matrix(10,0,0,10,-31668,-16192)" />
  <path
     style="fill:#e1e5e8;stroke:none;stroke-width:1"
     d="M 1136.5 644.125 L 379.3125 667.34375 C 379.3125 667.34375 377.66985 667.23936 374.5625 667.3125 C 371.45515 667.38564 366.87408 667.62652 361.03125 668.34375 C 358.10983 668.70236 354.87931 669.18581 351.34375 669.8125 C 347.80819 670.43919 343.97822 671.22137 339.875 672.1875 C 335.77178 673.15363 331.40565 674.27931 326.78125 675.65625 C 322.15685 677.03319 317.2866 678.64088 312.1875 680.5 C 307.0884 682.35912 301.74606 684.49359 296.21875 686.90625 C 290.69144 689.31891 284.97154 692.02492 279.0625 695.0625 C 273.15346 698.10008 267.05679 701.45364 260.8125 705.1875 C 254.56821 708.92136 248.15805 713.02974 241.625 717.53125 C 235.09195 722.03276 228.43158 726.94072 221.65625 732.28125 C 214.88092 737.62178 208.00238 743.40534 201.03125 749.65625 C 194.06012 755.90716 186.99544 762.61108 179.875 769.84375 C 172.75456 777.07642 165.56702 784.83921 158.34375 793.125 C 145.30195 808.08402 128.24591 828.34474 109.6875 850.5625 L 114.65625 858.96875 L 114.15625 868.15625 L 123.25 873.25 L 132.375 872.65625 L 141.5625 876.75 L 142.5625 880.75 L 137.5625 897.65625 L 144.15625 917.46875 L 146.25 932.25 L 151.25 934.25 L 151.375 943.46875 L 153.375 948.0625 L 157.46875 948.5625 L 158.46875 954.15625 L 151.875 963.75 L 158.46875 970.96875 L 159.6875 973.53125 L 195.75 912.09375 C 195.75 912.09375 197.50218 909.53748 200.875 905.0625 C 204.24782 900.58752 209.23871 894.17048 215.71875 886.46875 C 218.95877 882.61788 222.56422 878.45476 226.53125 874.03125 C 230.49828 869.60774 234.83916 864.93388 239.5 860.09375 C 244.16084 855.25362 249.1473 850.25696 254.46875 845.15625 C 259.7902 840.05554 265.42614 834.86152 271.375 829.65625 C 277.32386 824.45098 283.58193 819.21629 290.125 814.0625 C 296.66807 808.90871 303.52092 803.82129 310.625 798.875 C 317.72908 793.92871 325.08686 789.14526 332.71875 784.5625 C 336.53469 782.27112 340.43333 780.01499 344.375 777.84375 C 348.31667 775.67251 352.31175 773.56285 356.375 771.53125 C 360.43825 769.49965 364.56932 767.55995 368.75 765.6875 C 372.93068 763.81505 377.14354 762.03755 381.4375 760.34375 C 385.73146 758.64995 390.09691 757.0269 394.5 755.53125 C 398.90309 754.0356 403.36693 752.65299 407.875 751.375 C 412.38307 750.09701 416.92236 748.94708 421.53125 747.90625 C 426.14014 746.86542 430.79443 745.94042 435.5 745.15625 C 440.20557 744.37208 444.98315 743.72675 449.78125 743.21875 C 454.57935 742.71075 459.42602 742.33733 464.3125 742.125 C 533.67763 739.11089 831.3685 726.3028 1164 711.96875 L 1163.75 709.96875 L 1141.9688 701.84375 L 1135.375 696.25 L 1133.875 691.65625 L 1135.75 678.96875 L 1131.6562 659.5625 L 1136.6562 647.84375 L 1136.5 644.125 z "
     id="path4601"
     transform="matrix(10,0,0,10,-31668,-16192)" />
  <path
     style="fill:#4d74ab;stroke:none;stroke-width:1;fill-opacity:1"
     d="M 1126.7188 610.40625 C 992.68991 613.49284 854.15282 616.69811 740.875 619.25 C 578.1833 622.91508 451.56517 625.68078 403.125 626.53125 C 397.06998 626.63756 391.10064 626.85066 385.21875 627.15625 C 379.33686 627.46184 373.52023 627.85196 367.8125 628.34375 C 362.10477 628.83554 356.50127 629.42882 350.96875 630.09375 C 345.43623 630.75868 339.98128 631.51876 334.625 632.34375 C 329.26872 633.16874 323.9915 634.05927 318.8125 635.03125 C 313.6335 636.00323 308.56318 637.05034 303.5625 638.15625 C 293.56113 640.36806 283.90686 642.83092 274.625 645.5 C 265.34314 648.16908 256.42905 651.04073 247.875 654.0625 C 239.32095 657.08427 231.13044 660.26135 223.3125 663.53125 C 215.49456 666.80115 208.04227 670.18029 200.96875 673.59375 C 193.89523 677.00721 187.1958 680.45379 180.875 683.90625 C 174.5542 687.35871 168.62226 690.80061 163.0625 694.1875 C 157.50274 697.57439 152.32168 700.90825 147.53125 704.125 C 142.74082 707.34175 138.32529 710.43296 134.3125 713.375 C 130.29971 716.31704 126.69559 719.09348 123.46875 721.65625 C 117.01507 726.78179 112.13506 731.05021 108.875 734.03125 C 105.61494 737.01229 103.96875 738.71875 103.96875 738.71875 C 103.96875 738.71875 88.465119 753.50839 87.03125 754.875 L 87.0625 755.65625 L 94.15625 766.25 L 95.65625 773.96875 L 94.15625 782.0625 L 99.25 782.5625 L 100.75 787.15625 L 96.25 790.25 L 95.75 798.96875 L 104.875 800.96875 L 103.375 804.96875 L 106.96875 810.0625 L 106.96875 822.34375 L 102.375 826.34375 L 100.875 832.5625 L 107.46875 841.15625 L 109.5625 850.34375 L 109.6875 850.5625 C 128.24591 828.34474 145.30195 808.08402 158.34375 793.125 C 165.56702 784.83921 172.75456 777.07642 179.875 769.84375 C 186.99544 762.61108 194.06012 755.90716 201.03125 749.65625 C 208.00238 743.40534 214.88092 737.62178 221.65625 732.28125 C 228.43158 726.94072 235.09195 722.03276 241.625 717.53125 C 248.15805 713.02974 254.56821 708.92136 260.8125 705.1875 C 267.05679 701.45364 273.15346 698.10008 279.0625 695.0625 C 284.97154 692.02492 290.69144 689.31891 296.21875 686.90625 C 301.74606 684.49359 307.0884 682.35912 312.1875 680.5 C 317.2866 678.64088 322.15685 677.03319 326.78125 675.65625 C 331.40565 674.27931 335.77178 673.15363 339.875 672.1875 C 343.97822 671.22137 347.80819 670.43919 351.34375 669.8125 C 354.87931 669.18581 358.10983 668.70236 361.03125 668.34375 C 366.87408 667.62652 371.45515 667.38564 374.5625 667.3125 C 377.66985 667.23936 379.3125 667.34375 379.3125 667.34375 L 1136.5 644.125 L 1136.0625 633.5625 L 1128.9688 613.75 L 1126.7188 610.40625 z "
     id="path4599"
     transform="matrix(10,0,0,10,-31668,-16192)" />
  <path
     style="fill:#e1e5e8;stroke:none;stroke-width:1"
     d="M 1018.4375 573.96875 L 307.9375 582.34375 C 307.9375 582.34375 306.39201 582.33871 303.4375 582.53125 C 300.48299 582.72379 296.12547 583.10483 290.46875 583.875 C 284.81203 584.64517 277.85663 585.79838 269.75 587.53125 C 265.69669 588.39769 261.33723 589.41443 256.71875 590.59375 C 252.10027 591.77307 247.21461 593.11592 242.0625 594.65625 C 236.91039 596.19658 231.49796 597.92552 225.84375 599.875 C 220.18954 601.82448 214.31226 603.99948 208.1875 606.40625 C 202.06274 608.81302 195.68878 611.46281 189.125 614.375 C 182.56122 617.28719 175.78376 620.47175 168.8125 623.9375 C 161.84124 627.40325 154.69095 631.15131 147.34375 635.21875 C 139.99655 639.28619 132.47285 643.65773 124.78125 648.375 C 117.08965 653.09227 109.22322 658.14727 101.21875 663.5625 C 93.214283 668.97773 85.067043 674.77617 76.78125 680.9375 C 69.230987 686.55189 61.201604 692.69698 52.96875 699.125 L 60.5625 702.15625 L 68.65625 703.65625 L 73.75 716.96875 L 75.875 727.65625 L 86.46875 743.34375 L 87.03125 754.875 C 88.465119 753.50839 103.96875 738.71875 103.96875 738.71875 C 103.96875 738.71875 105.61494 737.01229 108.875 734.03125 C 112.13506 731.05021 117.01507 726.78179 123.46875 721.65625 C 126.69559 719.09348 130.29971 716.31704 134.3125 713.375 C 138.32529 710.43296 142.74082 707.34175 147.53125 704.125 C 152.32168 700.90825 157.50274 697.57439 163.0625 694.1875 C 168.62226 690.80061 174.5542 687.35871 180.875 683.90625 C 187.1958 680.45379 193.89523 677.00721 200.96875 673.59375 C 208.04227 670.18029 215.49456 666.80115 223.3125 663.53125 C 231.13044 660.26135 239.32095 657.08427 247.875 654.0625 C 256.42905 651.04073 265.34314 648.16908 274.625 645.5 C 283.90686 642.83092 293.56113 640.36806 303.5625 638.15625 C 308.56318 637.05034 313.6335 636.00323 318.8125 635.03125 C 323.9915 634.05927 329.26872 633.16874 334.625 632.34375 C 339.98128 631.51876 345.43623 630.75868 350.96875 630.09375 C 356.50127 629.42882 362.10477 628.83554 367.8125 628.34375 C 373.52023 627.85196 379.33686 627.46184 385.21875 627.15625 C 391.10064 626.85066 397.06998 626.63756 403.125 626.53125 C 451.56517 625.68078 578.1833 622.91508 740.875 619.25 C 854.15282 616.69811 992.68991 613.49284 1126.7188 610.40625 L 1119.75 600.0625 L 1115.6562 589.84375 L 1105.9688 580.15625 L 1105.4688 584.25 L 1097.375 584.34375 L 1088.75 580.75 L 1079.6562 582.34375 L 1070.5625 578.84375 L 1062.4688 581.46875 L 1058.375 579.46875 L 1054.375 583.46875 L 1054.375 588.0625 L 1046.75 596.75 L 1047.25 591.15625 L 1044.25 586.65625 L 1042.75 590.65625 L 1032.6562 598.34375 L 1023.5625 598.46875 L 1021.9688 593.84375 L 1018.4375 573.96875 z "
     id="path4591"
     transform="matrix(10,0,0,10,-31668,-16192)" />
  <path
     style="fill:#2b416a;stroke:none;stroke-width:1;fill-opacity:1"
     d="M 1019.6875 531.34375 L 294.34375 531.34375 C 290.5195 531.34375 286.64219 531.444 282.71875 531.65625 C 278.79531 531.8685 274.82101 532.21419 270.8125 532.625 C 266.80399 533.03581 262.73572 533.52932 258.65625 534.125 C 254.57678 534.72068 250.48008 535.3894 246.34375 536.15625 C 238.07109 537.68996 229.69668 539.55127 221.28125 541.6875 C 212.86582 543.82373 204.41407 546.24579 195.96875 548.875 C 187.52343 551.50421 179.08109 554.36236 170.71875 557.375 C 162.35641 560.38764 154.07274 563.55724 145.90625 566.84375 C 137.73976 570.13026 129.70152 573.51791 121.84375 576.96875 C 113.98598 580.41959 106.31118 583.93189 98.875 587.4375 C 91.438824 590.94311 84.245458 594.45541 77.34375 597.90625 C 70.442042 601.35709 63.816868 604.74474 57.5625 608.03125 C 45.053764 614.60427 33.960888 620.74158 24.71875 626 C 19.420882 629.01428 16.272341 630.92547 12.28125 633.28125 L 13.75 641.65625 L 17.375 646.75 L 21.46875 644.15625 L 24.46875 650.25 L 29.0625 648.75 L 30.5625 662.5625 L 35.65625 665.0625 L 31.65625 678.25 L 35.15625 692.0625 L 52.96875 699.125 C 61.201604 692.69698 69.230987 686.55189 76.78125 680.9375 C 85.067043 674.77617 93.214283 668.97773 101.21875 663.5625 C 109.22322 658.14727 117.08965 653.09227 124.78125 648.375 C 132.47285 643.65773 139.99655 639.28619 147.34375 635.21875 C 154.69095 631.15131 161.84124 627.40325 168.8125 623.9375 C 175.78376 620.47175 182.56122 617.28719 189.125 614.375 C 195.68878 611.46281 202.06274 608.81302 208.1875 606.40625 C 214.31226 603.99948 220.18954 601.82448 225.84375 599.875 C 231.49796 597.92552 236.91039 596.19658 242.0625 594.65625 C 247.21461 593.11592 252.10027 591.77307 256.71875 590.59375 C 261.33723 589.41443 265.69669 588.39769 269.75 587.53125 C 277.85663 585.79838 284.81203 584.64517 290.46875 583.875 C 296.12547 583.10483 300.48299 582.72379 303.4375 582.53125 C 306.39201 582.33871 307.9375 582.34375 307.9375 582.34375 L 1018.4375 573.96875 L 1017.25 567.34375 L 1017.75 563.25 L 1015.1562 548.5625 L 1020.1562 533.15625 L 1019.6875 531.34375 z "
     id="path4589"
     transform="matrix(10,0,0,10,-31668,-16192)" />
  <path
     style="fill:#e1e5e8;stroke:none;stroke-width:1"
     d="M 229.25 0.0625 L 220.15625 0.15625 L 213.0625 2.65625 L 209.0625 0.15625 L 200.46875 1.15625 L 191.375 5.84375 L 178.75 16.5625 L 162.0625 32.96875 L 160.15625 59.96875 L 156.15625 73.25 L 154.65625 91.65625 L 156.15625 95.75 L 160.25 97.75 L 164.875 121.65625 L 162.375 131.96875 L 173.5625 165.5625 L 175.15625 183.34375 L 179.75 186.96875 L 184.25 186.96875 L 194.46875 204.25 L 199.0625 215.96875 L 207.65625 220.0625 L 210.15625 231.25 L 219.375 237.34375 L 225.96875 248.0625 L 236.0625 264.84375 L 239.15625 269.46875 L 241.15625 279.0625 L 237.65625 287.75 L 238.15625 291.34375 L 238.75 301.0625 L 235.25 315.34375 L 232.25 325.5625 L 230.75 335.75 L 230.25 336.25 L 224.65625 330.15625 L 214.5625 331.15625 L 203.96875 341.96875 L 201.46875 349.5625 L 194.875 356.25 L 195.875 363.34375 L 186.25 361.34375 L 186.75 370.5625 L 179.65625 371.0625 L 178.75 377.65625 L 174.65625 380.75 L 174.15625 391.96875 L 169.15625 394.0625 L 166.15625 400.65625 L 167.65625 408.34375 L 161.5625 408.84375 L 156.0625 415.96875 L 156.0625 421.5625 L 147.96875 425.75 L 146.46875 431.34375 L 137.375 434.96875 L 136.375 446.65625 L 137.96875 459.34375 L 120.15625 461.96875 L 116.15625 458.96875 L 103.46875 459.46875 L 92.375 463.5625 L 87.375 468.15625 L 83.25 469.25 L 75.75 479.46875 L 65.65625 490.65625 L 66.65625 499.34375 L 58.0625 499.84375 L 56.5625 505.46875 L 49.46875 509.0625 L 45.46875 519.25 L 36.375 525.34375 L 31.75 532.5625 L 24.65625 532.0625 L 20.15625 535.15625 L 20.15625 541.25 L 10.5625 548.96875 L 10.0625 555.5625 L 6.5625 558.5625 L 10.65625 575.96875 L 8.65625 585.65625 L 9.65625 597.84375 L 0.5625 600.96875 L 0.0625 607.0625 L 9.65625 618.25 L 12.28125 633.28125 C 16.272341 630.92547 19.420882 629.01428 24.71875 626 C 33.960888 620.74158 45.053764 614.60427 57.5625 608.03125 C 63.816868 604.74474 70.442042 601.35709 77.34375 597.90625 C 84.245458 594.45541 91.438824 590.94311 98.875 587.4375 C 106.31118 583.93189 113.98598 580.41959 121.84375 576.96875 C 129.70152 573.51791 137.73976 570.13026 145.90625 566.84375 C 154.07274 563.55724 162.35641 560.38764 170.71875 557.375 C 179.08109 554.36236 187.52343 551.50421 195.96875 548.875 C 204.41407 546.24579 212.86582 543.82373 221.28125 541.6875 C 229.69668 539.55127 238.07109 537.68996 246.34375 536.15625 C 250.48008 535.3894 254.57678 534.72068 258.65625 534.125 C 262.73572 533.52932 266.80399 533.03581 270.8125 532.625 C 274.82101 532.21419 278.79531 531.8685 282.71875 531.65625 C 286.64219 531.444 290.5195 531.34375 294.34375 531.34375 L 1019.6875 531.34375 L 1017.6562 523.5625 L 1019.5625 510.75 L 1012.9688 503.65625 L 1017.4688 493.46875 L 1017.4688 492.96875 L 1016.4688 487.34375 L 1020.9688 477.65625 L 1017.875 465.34375 L 1019.875 461.34375 L 1017.25 452.15625 L 1010.6562 445.5625 L 1009.1562 436.84375 L 1000.4688 434.34375 L 995.46875 427.75 L 986.25 423.75 L 986.25 422.75 L 981.15625 407.46875 L 971.5625 398.25 L 967.46875 397.25 L 961.875 379.46875 L 957.25 382.0625 L 947.65625 377.46875 L 925.25 352.0625 L 902.96875 341.46875 L 899.375 340.46875 L 891.25 326.75 L 872.96875 317.15625 L 861.875 314.15625 L 853.65625 305.46875 L 843.5625 301.96875 L 834.875 289.25 L 820.15625 280.15625 L 814.0625 279.65625 L 811.5625 279.15625 L 804.46875 277.15625 L 785.65625 266.46875 L 778.15625 267.0625 L 771.46875 255.34375 L 755.75 251.34375 L 752.25 249.75 L 751.75 249.25 L 746.15625 244.25 L 737.5625 244.75 L 719.875 240.25 L 715.25 236.65625 L 712.65625 235.15625 L 710.65625 234.15625 L 705.5625 228.0625 L 690.375 224.0625 L 684.875 218.96875 L 682.25 213.34375 L 678.75 212.34375 L 675.65625 210.84375 L 664.0625 206.75 L 655.375 201.75 L 648.25 194.5625 L 639.65625 195.15625 L 625.96875 187.0625 L 612.875 189.65625 L 602.65625 184.0625 L 591.5625 181.0625 L 586.46875 175.46875 L 582.46875 178.0625 L 577.875 174.46875 L 570.75 175.5625 L 568.75 176.0625 L 559.15625 168.96875 L 549.5625 163.84375 L 539.875 164.34375 L 531.75 157.75 L 514.5625 153.75 L 504.96875 158.84375 L 485.75 167.65625 L 479.15625 163.0625 L 472.0625 157.96875 L 468.96875 148.84375 L 464.96875 147.84375 L 463.96875 141.65625 L 440.15625 137.15625 L 434.5625 133.65625 L 429.96875 124.96875 L 421.375 121.96875 L 419.875 116.84375 L 411.15625 112.75 L 399.5625 104.65625 L 391.96875 99.0625 L 381.875 99.15625 L 366.0625 83.84375 L 357.96875 84.96875 L 351.375 80.84375 L 340.75 73.75 L 337.15625 69.65625 L 338.65625 57.46875 L 336.65625 51.84375 L 324.46875 49.84375 L 320.96875 47.75 L 318.96875 46.75 L 317.375 37.0625 L 307.25 35.0625 L 293.0625 26.96875 L 289.0625 30.5625 L 268.75 22.96875 L 267.25 21.96875 L 264.75 19.84375 L 264.75 15.25 L 248.0625 13.34375 L 244.46875 9.25 L 235.375 8.75 L 229.25 0.0625 z "
     id="Hawaii"
     transform="matrix(10,0,0,10,-31668,-16192)" />
  <style
     id="style3003">
	.dark{
		fill:	#2b416a;
	}
	.light{
		fill:	#4d74ab;
	}
</style>
</svg>
